<?xml version="1.0" standalone="no"?>
<!DOCTYPE svg PUBLIC "-//W3C//DTD SVG 20010904//EN"
 "http://www.w3.org/TR/2001/REC-SVG-20010904/DTD/svg10.dtd">
<svg version="1.0" xmlns="http://www.w3.org/2000/svg"
 width="300.000000pt" height="346.000000pt" viewBox="0 0 300.000000 346.000000"
 preserveAspectRatio="xMidYMid meet">
<metadata>
Created by potrace 1.10, written by Peter Selinger 2001-2011
</metadata>
<g transform="translate(0.000000,346.000000) scale(0.100000,-0.100000)"
fill="#000000" stroke="none">
<path d="M58 3444 c-15 -8 -32 -23 -38 -33 -14 -27 -14 -2266 0 -2341 28 -152
88 -268 190 -371 138 -139 273 -205 655 -319 266 -80 311 -97 419 -153 88 -46
181 -129 214 -192 18 -35 21 -38 28 -20 15 41 78 118 128 155 103 78 203 119
581 240 192 61 355 131 442 191 130 89 229 216 279 360 l29 84 3 1208 c2 818
-1 1207 -8 1207 -5 0 -10 -7 -10 -15 0 -14 -3 -14 -30 0 -26 13 -190 15 -1442
15 -1221 -1 -1417 -3 -1440 -16z m2890 -1171 l-3 -1138 -23 -80 c-38 -139 -85
-219 -181 -315 -135 -134 -266 -198 -630 -310 -112 -34 -241 -77 -287 -96
-150 -60 -252 -137 -291 -220 l-17 -34 -27 49 c-68 119 -182 176 -591 297
-106 31 -242 77 -303 101 -317 127 -483 317 -530 604 -13 80 -15 255 -15 1187
l0 1092 1450 0 1451 0 -3 -1137z"/>
<path d="M2050 2971 c-26 -50 1 -145 49 -171 27 -14 27 -30 0 -30 -11 0 -46
-18 -76 -40 -52 -37 -61 -40 -122 -40 l-66 -1 54 -34 c111 -71 212 -63 287 24
12 14 25 23 28 20 3 -3 0 -30 -6 -61 -20 -94 13 -139 113 -154 l44 -7 -27 22
c-32 25 -51 79 -42 115 9 37 59 76 98 76 77 0 173 -98 201 -207 38 -145 -40
-267 -159 -249 -23 4 -98 34 -169 68 l-127 61 -118 -24 c-98 -20 -146 -24
-297 -24 -178 1 -182 1 -355 44 -183 46 -302 56 -362 32 -27 -10 -28 -10 -28
26 0 22 -12 57 -31 90 -25 44 -30 62 -26 94 l5 39 -29 -21 c-60 -42 -72 -85
-44 -152 18 -44 19 -58 3 -80 -12 -15 -17 -15 -53 -3 -43 15 -217 17 -247 2
-17 -7 -18 0 -18 95 0 57 -4 109 -8 116 -10 16 -57 33 -90 33 l-26 0 22 -20
c28 -26 28 -28 -5 -103 -33 -79 -35 -145 -5 -186 18 -24 22 -45 24 -128 3 -96
2 -99 -31 -154 -21 -35 -44 -60 -62 -66 -42 -16 -40 -59 5 -102 31 -30 39 -33
75 -28 22 3 54 15 72 27 17 13 43 23 58 22 54 -1 127 -15 141 -27 8 -8 27 -17
42 -20 20 -5 28 -14 28 -29 0 -11 11 -45 25 -75 l25 -54 -77 7 c-96 8 -130 -9
-167 -81 -13 -27 -42 -71 -65 -98 -23 -27 -44 -65 -47 -85 -4 -19 -11 -44 -17
-55 -6 -11 -14 -41 -17 -67 l-6 -47 44 2 c30 1 52 9 69 25 22 20 25 30 20 68
-5 45 6 57 31 32 9 -9 12 -2 13 33 0 60 19 108 50 131 25 19 28 19 82 3 31 -9
85 -16 119 -15 35 2 76 -3 93 -9 16 -7 44 -10 61 -6 30 5 32 4 38 -32 3 -21 6
-62 6 -92 0 -46 -6 -62 -40 -113 -24 -36 -40 -72 -40 -89 0 -16 -4 -29 -9 -29
-13 0 -47 -58 -55 -93 -6 -25 -4 -28 16 -26 13 1 30 -1 39 -5 24 -10 92 10
113 33 20 22 22 46 10 106 l-7 39 28 -22 c15 -12 31 -22 35 -22 4 0 10 33 14
73 7 80 31 163 54 190 8 9 18 34 21 55 l6 37 90 7 c62 4 123 17 198 42 60 20
114 36 121 36 8 0 11 -12 8 -36 l-5 -37 35 26 c19 15 55 36 80 47 l47 20 24
-24 c23 -22 65 -38 167 -64 80 -19 76 -98 -10 -196 -27 -31 -53 -69 -56 -84
-3 -15 -19 -52 -35 -83 -42 -81 -39 -90 24 -64 12 5 17 2 17 -9 0 -20 4 -20
40 -1 35 18 60 52 60 80 0 18 5 21 29 17 l28 -4 5 74 c3 44 13 93 27 123 34
77 102 185 116 185 22 0 77 -52 91 -87 16 -37 18 -153 5 -201 -6 -18 -22 -47
-36 -64 -15 -18 -24 -39 -22 -49 3 -10 -4 -26 -15 -36 -18 -16 -48 -71 -48
-89 0 -3 11 -3 25 0 18 5 25 2 25 -9 0 -18 4 -18 52 -5 46 13 78 52 78 96 0
36 23 66 45 58 17 -7 25 48 22 158 -1 67 2 81 21 105 63 78 61 132 -6 168 -47
26 -82 91 -82 156 0 26 7 83 15 126 17 90 19 161 5 197 -9 24 -8 26 22 26 85
0 156 46 203 131 27 49 30 63 30 144 0 79 -4 97 -29 150 -34 69 -123 162 -180
189 -22 10 -66 25 -98 32 -121 29 -227 100 -258 174 -14 35 -44 40 -60 11z
m60 -105 c0 -20 17 -37 63 -61 24 -14 27 -14 27 0 0 8 -6 15 -14 15 -20 0 -66
47 -66 67 1 16 2 17 13 2 41 -54 183 -129 244 -129 36 0 123 -50 168 -95 26
-26 60 -76 78 -113 91 -195 -25 -412 -200 -375 -26 6 -57 14 -68 19 -17 7 -16
3 7 -24 31 -38 43 -98 34 -180 -18 -168 -19 -268 -3 -299 14 -27 15 -32 2 -37
-12 -4 -11 -11 7 -42 12 -20 30 -39 40 -42 23 -6 23 -18 -4 -69 -20 -37 -21
-46 -10 -76 7 -18 12 -67 12 -108 0 -71 -1 -75 -29 -90 -27 -16 -41 -50 -41
-105 0 -23 -33 -54 -58 -54 -10 0 -10 5 -2 21 16 29 1 39 -17 12 -17 -26 -33
-30 -33 -9 0 25 41 66 66 66 21 0 37 20 17 20 -5 0 -14 4 -21 9 -11 7 -9 16
12 47 33 51 50 133 42 206 -13 124 -50 155 -289 242 -66 25 -74 46 -85 216 -8
118 -13 145 -28 161 -13 12 -24 15 -33 10 -12 -8 -12 -12 2 -25 20 -21 25 -51
31 -203 4 -131 4 -133 -49 -133 -32 0 -119 -35 -179 -71 -55 -34 -67 -32 -41
7 17 26 17 27 -1 20 -87 -35 -322 -98 -381 -103 -71 -6 -73 -5 -73 17 0 35 37
78 90 105 27 14 51 29 55 35 10 16 -5 12 -42 -11 -19 -12 -36 -19 -39 -17 -2
3 15 34 38 69 l43 64 0 98 c0 81 -2 97 -15 95 -12 -3 -15 -21 -16 -90 0 -81
-3 -91 -34 -140 -77 -121 -117 -209 -135 -295 -10 -49 -21 -48 -35 2 -10 34
-10 55 -1 89 13 53 14 66 3 66 -14 0 -32 -106 -26 -152 5 -35 3 -46 -9 -51
-24 -9 -48 -107 -27 -107 6 0 10 10 10 23 0 30 29 72 42 59 6 -6 6 -18 -2 -32
-7 -13 -15 -55 -19 -93 -3 -43 -11 -72 -18 -75 -8 -2 -13 5 -13 17 0 26 -12
27 -33 4 -13 -15 -14 -27 -5 -73 9 -52 9 -55 -17 -77 -14 -13 -37 -23 -51 -23
-27 0 -28 3 -13 33 12 22 12 22 -9 3 -35 -30 -47 -14 -17 23 19 22 34 31 47
28 22 -6 25 8 3 17 -25 9 -17 38 26 101 l41 60 -6 148 c-4 82 -13 176 -21 210
-19 79 -19 224 -1 302 8 33 13 61 12 63 -5 4 -34 -79 -45 -128 -15 -65 -13
-159 4 -216 17 -55 20 -130 6 -139 -14 -8 -57 70 -77 140 -23 81 -23 183 -1
215 9 13 17 36 17 50 -1 20 -5 16 -26 -25 -23 -45 -25 -59 -21 -145 4 -101 29
-180 68 -216 42 -37 6 -66 -45 -36 -40 23 -73 81 -87 155 -7 32 -15 53 -19 47
-10 -16 -27 8 -35 52 -6 33 -2 44 45 113 29 41 50 78 48 81 -3 3 -17 -15 -32
-40 -33 -56 -70 -86 -108 -86 -40 0 -32 14 22 43 64 33 90 76 90 146 0 31 -5
63 -10 71 -7 10 -10 -7 -10 -56 0 -84 -14 -108 -86 -148 -56 -31 -137 -36
-166 -9 -16 14 -20 14 -35 1 -35 -29 -112 -68 -136 -68 -13 0 -32 9 -42 20
-10 11 -13 20 -7 20 6 0 14 -4 17 -10 10 -16 67 -12 87 7 19 17 25 53 8 53 -5
0 -10 -8 -10 -19 0 -25 -24 -43 -52 -39 -28 4 -27 22 2 26 12 2 22 14 26 30 4
15 13 33 22 39 9 7 12 16 8 20 -4 5 -17 -5 -29 -21 -35 -48 -67 -76 -87 -76
-11 0 -20 5 -20 10 0 6 7 10 15 10 8 0 14 6 13 13 -2 7 5 11 16 9 13 -3 17 1
13 12 -3 8 1 20 9 27 29 24 64 107 64 153 0 31 5 46 16 50 26 10 54 7 54 -6 0
-7 11 0 23 16 23 29 47 29 47 1 0 -7 -25 -43 -56 -79 -31 -37 -54 -70 -50 -73
4 -4 11 -1 16 6 7 12 14 11 43 -2 19 -10 46 -17 59 -17 26 0 88 35 88 50 0 15
-9 12 -37 -10 -31 -24 -95 -27 -113 -5 -11 13 -7 15 23 15 35 0 49 6 119 49
39 23 46 35 28 46 -5 3 -10 -1 -10 -9 0 -19 -13 -20 -41 -6 -27 15 -24 40 5
40 31 0 72 33 80 65 4 14 13 25 22 25 8 0 17 7 20 15 4 10 13 13 25 10 14 -5
19 -1 19 14 0 24 17 27 43 7 37 -28 6 -78 -35 -55 -10 6 -24 -1 -43 -21 -32
-34 -30 -37 11 -15 48 25 144 15 144 -15 0 -4 -16 -18 -35 -30 -27 -17 -47
-21 -87 -18 -66 4 -78 -18 -15 -27 52 -8 97 8 150 55 43 37 40 50 -9 50 -20 0
-34 3 -32 8 2 4 12 23 21 43 35 78 105 78 432 -1 195 -46 403 -50 595 -10 52
11 108 20 125 20 16 0 83 -26 149 -57 178 -85 253 -82 318 12 94 135 -11 388
-176 425 -26 6 -44 3 -67 -9 -63 -32 -85 -88 -65 -166 7 -28 7 -29 -8 -11 -31
38 -16 127 27 175 14 16 17 22 7 19 -33 -10 -60 -69 -60 -132 0 -43 -3 -57
-10 -46 -26 41 -3 179 32 193 8 3 6 6 -5 6 -23 1 -52 -14 -102 -54 -43 -35
-85 -59 -85 -50 0 4 21 27 48 52 45 44 46 46 17 39 -16 -4 -54 -23 -85 -42
-55 -34 -92 -42 -118 -25 -9 5 -2 10 23 14 20 3 52 18 71 32 47 36 96 55 143
55 22 0 43 5 46 10 4 6 -9 10 -31 10 -67 0 -139 99 -118 162 7 21 9 20 25 -17
10 -22 19 -49 19 -59z m-16 -187 c-23 -25 -71 -52 -86 -47 -10 4 78 65 96 67
5 1 1 -8 -10 -20z m-1584 -123 c0 -14 -36 -46 -52 -46 -14 0 -8 20 12 40 24
24 40 26 40 6z m374 -27 c14 -7 27 -18 31 -26 4 -12 0 -14 -22 -8 -26 6 -43
21 -43 38 0 10 5 9 34 -4z m-374 -29 c0 -13 -14 -27 -40 -40 -33 -17 -40 -18
-40 -6 0 9 17 27 37 41 45 30 43 30 43 5z m420 -35 c5 -3 10 -13 10 -22 0 -12
-6 -14 -27 -9 -26 7 -53 30 -53 47 0 8 50 -4 70 -16z m-420 -22 c0 -10 -72
-83 -82 -83 -10 0 -10 41 0 57 13 21 82 42 82 26z m418 -43 c24 -22 29 -55 11
-66 -17 -10 -71 49 -63 69 8 23 25 21 52 -3z m-418 -15 c0 -27 -30 -75 -46
-75 -28 0 -27 30 2 61 31 32 44 37 44 14z m143 -28 c-15 -11 -58 -49 -95 -84
-36 -35 -73 -63 -82 -63 -18 0 -11 26 10 34 19 7 18 26 -1 26 -18 0 -20 16 -3
26 6 4 25 11 42 15 22 5 25 7 9 8 -16 1 -20 6 -16 22 5 18 11 20 39 16 33 -6
48 6 22 16 -7 3 13 5 45 5 l58 1 -28 -22z m132 0 c20 -16 12 -39 -10 -30 -9 3
-15 -1 -15 -11 0 -22 -12 -20 -33 5 -10 11 -21 19 -24 16 -2 -3 5 -15 16 -26
21 -21 29 -61 12 -61 -6 0 -17 10 -25 22 -9 12 -30 30 -47 39 l-31 16 33 21
c39 24 97 28 124 9z m-126 -62 c29 -15 46 -50 29 -61 -5 -3 -19 2 -30 13 -21
18 -21 18 -14 -19 6 -31 4 -38 -9 -38 -8 0 -15 9 -15 20 0 32 -31 42 -57 18
-13 -12 -26 -18 -30 -14 -7 7 75 96 90 96 4 0 21 -7 36 -15z m8 -142 c3 -7
-14 -12 -47 -15 -51 -3 -51 -3 -29 15 24 19 70 20 76 0z m1364 -469 c9 -8 39
-23 65 -33 l49 -17 -2 -50 -1 -49 15 38 c15 36 43 51 43 22 0 -8 -19 -45 -41
-82 -53 -87 -79 -162 -79 -231 0 -54 0 -54 -28 -49 -26 5 -29 3 -38 -35 -9
-39 -36 -70 -49 -56 -13 12 6 68 23 68 12 0 11 4 -6 23 -22 23 -29 52 -14 59
15 6 92 115 107 151 34 82 13 107 -118 146 -118 34 -132 45 -98 72 16 13 39
19 72 19 27 0 49 5 49 10 0 15 31 12 51 -6z m-1258 -14 c50 0 53 -1 80 -44 40
-64 37 -70 -32 -63 -33 4 -78 14 -100 23 -41 16 -42 16 -81 -11 -41 -28 -60
-69 -60 -127 0 -33 -17 -37 -29 -6 -13 35 -25 2 -22 -62 2 -42 -2 -62 -14 -74
-25 -25 -35 -19 -24 14 6 16 9 35 7 42 -3 7 -11 -5 -18 -27 -17 -55 -34 -70
-27 -25 9 60 47 151 80 192 18 22 46 65 62 97 24 44 38 59 65 68 19 7 41 10
48 7 8 -2 37 -4 65 -4z m1688 -52 c53 -34 64 -65 34 -98 -8 -9 -24 -34 -35
-56 l-19 -39 0 30 c0 17 8 41 19 55 27 35 25 57 -8 74 -25 13 -61 66 -46 66 4
0 28 -14 55 -32z m-492 -395 c-1 -16 -35 -67 -47 -71 -17 -5 -15 8 8 46 18 29
41 44 39 25z"/>
<path d="M825 2230 c-8 -13 65 -13 85 0 11 7 2 10 -32 10 -26 0 -50 -4 -53
-10z"/>
<path d="M1747 2163 c-4 -6 12 -27 34 -49 54 -52 72 -89 72 -149 0 -63 -21
-111 -69 -165 -88 -97 -195 -142 -341 -144 -51 0 -93 -4 -93 -7 0 -13 94 -18
158 -9 86 12 115 21 182 55 154 76 228 228 171 350 -21 45 -106 132 -114 118z"/>
<path d="M856 1900 c-9 -22 -16 -50 -15 -63 0 -14 5 -8 13 18 7 22 18 50 25
63 6 12 8 22 2 22 -5 0 -16 -18 -25 -40z"/>
<path d="M656 1631 c-16 -3 -31 -12 -34 -20 -4 -11 0 -12 14 -6 24 12 87 12
142 1 28 -5 42 -4 42 3 0 6 -15 11 -34 11 -19 0 -38 5 -41 10 -7 11 -43 11
-89 1z"/>
</g>
</svg>
