<?xml version="1.0" encoding="utf-8"?>
<!-- Generator: Adobe Illustrator 23.0.1, SVG Export Plug-In . SVG Version: 6.00 Build 0)  -->
<svg version="1.1" id="Layer_1" xmlns="http://www.w3.org/2000/svg" xmlns:xlink="http://www.w3.org/1999/xlink" x="0px" y="0px"
	 viewBox="0 0 225 100" style="enable-background:new 0 0 225 100;" xml:space="preserve">
<style type="text/css">
	.st0{fill-rule:evenodd;clip-rule:evenodd;fill:#252E65;}
	.st1{fill:#FFFFFF;}
	.st2{fill:none;stroke:#252E65;stroke-width:2;stroke-miterlimit:10;}
	.st3{enable-background:new    ;}
	.st4{fill:none;stroke:#252E65;stroke-width:1.25;stroke-miterlimit:10;}
	.st5{fill:none;stroke:#252E65;stroke-width:3;stroke-miterlimit:10;}
</style>
<circle class="st0" cx="111" cy="50" r="50"/>
<path class="st1" d="M81,28v58.9c16.7,13.8,40.7,14.4,58.1,1.5V28H81z"/>
<circle class="st2" cx="36" cy="50" r="35"/>
<g class="st3">
	<path class="st4" d="M47.8,46.1h-4.9l0.8,7c0.2,1.6-1.4,1.4-3.7,1.4 M40.2,46.1h-5.7 M41.2,35.5c0,0,3.6-7-3.8-9.9"/>
	<path class="st4" d="M31.9,63.9c2.6,1.6,5.8,1.6,8.2,1.3c2.3-0.3,4.2-1.7,5.2-3.8c0.4-0.8,7.1-17.7-0.5-25.8c0,0,3.6-3.4-0.8-7.6
		 M36.7,34.5c3-4.2-2.2-8.3-5.4-8.3c0,0-11.7-1.6-11.7,15.2c-5.4,4.7-5.3,9.5-3.6,14h10.1"/>
	<path class="st4" d="M43.9,63v10.4c0,2-2.1,3.3-3.8,2.4l-8.8-4.1c-3.2-1.5-5.2-4.7-5.2-8.2v-8.3L25,54.5c-1.3-0.8-2-2.3-2-3.8
		c0.1-3.9,3.1-4.1,3.1-4.1v-6.8c0-2.7,2.1-4.3,3.8-4.3 M45.5,59.9l4.6,4.2v7l9.4,4.9"/>
	<path class="st4" d="M26.1,57.2l-4.7,2.9v6.6l-10.7,7.5 M32.9,34.5c0-5.3-4.5-3.8-6.9-1.9c-4,3.3-3,10.3-3,10.3s-1.6,0.7-2.4,3.7
		 M48.4,34.7C53,40.2,52,46.1,52,46.1s4.6,3.3,3.2,9.1h-7.8"/>
</g>
<circle class="st2" cx="189" cy="50" r="35"/>
<g class="st3">
	<path class="st4" d="M174.7,45.5h4.9l-0.8,7c-0.2,1.6,1.4,1.4,3.7,1.4 M182.3,45.5h5.7 M184.6,65.9l-19.3,9.3 M196.7,65.9l16.9,9
		 M196.7,55.3v10.6c0,1.9-2.7,3.4-6,3.4s-6-1.5-6-3.4l0.3-5"/>
	<path class="st4" d="M186.7,60c0,0-2.4,1.2-4.1,1.2c-2.3,0-3-0.3-4.8-3.3c-1-1.7-3.8-6-3-14.5c0.9-10,8.1-4,17-11.5
		c0.3-0.3,0.8,0,0.8,0.4l0.1,6.3c0,4.3,2.4,6.8,2.4,6.8s2.8-1.1,3.7,1c0.9,2.2-0.3,3.9-1.7,4.9"/>
	<path class="st4" d="M178.4,68.9c0,0-7.5-0.9-11.4-4.7c0,0,3.4-4.1,3.4-6.7s0-6.2-0.4-12.6c-0.5-8.3,3.2-19,14.1-20.2
		c6.4-0.7,9.5,2.1,9.5,2.1s5.4,0.2,8.7,4.4c3.9,5.6,6.1,12.2,6.2,19c0,5.4-0.8,10,2.4,14.1c0,0-4.2,4-9.8,4"/>
	<path class="st4" d="M198.6,53.3c0,1.1-0.9,2-2,2s-2-0.9-2-2s0.9-2,2-2S198.6,52.2,198.6,53.3z"/>
</g>
<path class="st4" d="M90.3,78.5h39.6 M90.3,72.5h39.6 M90.3,66.5h39.6"/>
<path class="st5" d="M101,49.4l5.5,4.6L119,40"/>
</svg>
