<?xml version="1.0" encoding="utf-8"?>
<!-- Generator: Adobe Illustrator 23.0.1, SVG Export Plug-In . SVG Version: 6.00 Build 0)  -->
<svg version="1.1" id="Layer_1" xmlns="http://www.w3.org/2000/svg" xmlns:xlink="http://www.w3.org/1999/xlink" x="0px" y="0px"
	 viewBox="0 0 225 119.5" style="enable-background:new 0 0 225 119.5;" xml:space="preserve">
<style type="text/css">
	.st0{fill-rule:evenodd;clip-rule:evenodd;fill:#252E65;}
	.st1{fill:#FFFFFF;}
	.st2{fill:none;stroke:#252E65;stroke-width:2;stroke-miterlimit:10;}
	.st3{fill:none;stroke:#252E65;stroke-width:1.25;stroke-miterlimit:10;}
	.st4{fill:#242F65;stroke:#252E65;stroke-width:1.25;stroke-miterlimit:10;}
	.st5{fill-rule:evenodd;clip-rule:evenodd;fill:#FFFFFF;}
	.st6{fill:none;stroke:#252E65;stroke-miterlimit:10;}
	.st7{fill:#252E65;}
	.st8{fill:none;stroke:#252E65;stroke-width:3;stroke-miterlimit:10;}
</style>
<circle class="st0" cx="111" cy="50" r="50"/>
<path class="st1" d="M81,28v58.9c16.7,13.8,40.7,14.4,58.1,1.5V28H81z"/>
<circle class="st2" cx="36" cy="50" r="35"/>
<path class="st3" d="M24.2,46.1h4.9l-0.8,7c-0.2,1.6,1.4,1.4,3.7,1.4 M31.8,46.1h5.7 M30.8,35.5c0,0-3.6-7,3.8-9.9"/>
<path class="st3" d="M40.1,63.9c-2.5,1.3-5.4,1.8-8.2,1.3c-2.3-0.3-4.2-1.7-5.2-3.8c-0.4-0.8-7.1-17.7,0.5-25.8c0,0-3.6-3.4,0.8-7.6
	 M35.3,34.5c-3-4.2,2.2-8.3,5.4-8.3c0,0,11.7-1.6,11.7,15.2c5.4,4.7,5.3,9.5,3.6,14H45.9"/>
<path class="st3" d="M28.1,63v10.4c0,2,2.1,3.3,3.8,2.4l8.8-4.1c3.2-1.5,5.2-4.7,5.2-8.2v-8.3l1.1-0.7c1.3-0.8,2-2.3,2-3.8
	c-0.1-3.9-3.1-4.1-3.1-4.1v-6.8c0-2.7-2.1-4.3-3.8-4.3 M26.5,59.9l-4.6,4.2v7L12.5,76"/>
<path class="st3" d="M45.9,57.2l4.7,2.9v6.6l10.7,7.5 M39.1,34.5c0-5.3,4.5-3.8,6.9-1.9c4,3.3,3,10.3,3,10.3s1.6,0.7,2.4,3.7
	 M23.6,34.7C19,40.2,20,46.1,20,46.1s-4.6,3.3-3.2,9.1h7.8"/>
<g>
	<circle class="st2" cx="189" cy="50" r="35"/>
	<path class="st3" d="M203.3,45.5h-4.9l0.8,7c0.2,1.6-1.4,1.4-3.7,1.4 M195.7,45.5H190 M193.4,65.9l19.3,9.3 M181.3,65.9l-16.9,9
		 M181.3,55.3v10.6c0,1.9,2.7,3.4,6,3.4s6-1.5,6-3.4l-0.3-5"/>
	<path class="st3" d="M191.3,60c0,0,2.4,1.2,4.1,1.2c2.3,0,3-0.3,4.8-3.3c1-1.7,3.8-6,3-14.5c-0.9-10-8.1-4-17-11.5
		c-0.3-0.3-0.8,0-0.8,0.4l-0.1,6.3c0,4.3-2.4,6.8-2.4,6.8s-2.8-1.1-3.7,1c-0.9,2.2,0.3,3.9,1.7,4.9"/>
	<path class="st3" d="M199.6,68.9c0,0,7.5-0.9,11.4-4.7c0,0-3.4-4.1-3.4-6.7s0-6.2,0.4-12.6c0.5-8.3-3.2-19-14.1-20.2
		c-6.4-0.7-9.5,2.1-9.5,2.1s-5.4,0.2-8.7,4.4c-3.9,5.6-6.1,12.2-6.2,19c0,5.4,0.8,10-2.4,14.1c0,0,4.2,4,9.8,4"/>
	<path class="st3" d="M179.4,53.3c0,1.1,0.9,2,2,2s2-0.9,2-2s-0.9-2-2-2S179.4,52.2,179.4,53.3z"/>
</g>
<path class="st3" d="M90.3,78.5h39.6 M90.3,72.5h39.6 M90.3,66.5h39.6"/>
<g>
	<circle class="st4" cx="36" cy="98.3" r="20"/>
	<path class="st5" d="M47.8,89.1v24c-3.4,2.7-7.5,4.1-11.8,4.1c-4.5,0-8.6-1.5-11.8-4.1v-24C24.2,89.1,47.8,89.1,47.8,89.1z"/>
	<path class="st6" d="M27.9,109.2H44 M27.9,106.8H44 M27.9,104.4H44"/>
	<path class="st7" d="M35.3,93.6h1.3l2.5,6.5h-1.4l-0.5-1.4h-2.6l-0.5,1.4h-1.2L35.3,93.6z M36.8,97.7l-0.5-1.4l-0.4-1.1l-0.4,1.1
		L35,97.7C35,97.7,36.8,97.7,36.8,97.7z"/>
</g>
<g>
	<circle class="st4" cx="189.1" cy="98.3" r="20"/>
	<path class="st5" d="M200.9,89.1v24c-3.4,2.7-7.5,4.1-11.8,4.1c-4.5,0-8.6-1.5-11.8-4.1v-24H200.9z"/>
	<path class="st6" d="M181,109.2h16.1 M181,106.8h16.1 M181,104.4h16.1"/>
	<path class="st7" d="M186.6,93.6h2.7c1.3,0,2.4,0.3,2.4,1.6c0,0.9-0.6,1.4-1.3,1.5c0.8,0.1,1.4,0.6,1.4,1.6c0,1.3-1.1,1.8-2.4,1.8
		h-2.9v-6.5H186.6z M187.9,96.3h1.3c0.8,0,1.3-0.3,1.3-0.9s-0.4-0.8-1.2-0.8H188L187.9,96.3L187.9,96.3z M187.9,99.2h1.4
		c0.9,0,1.3-0.3,1.3-0.9c0-0.7-0.5-0.9-1.4-0.9h-1.3V99.2z"/>
</g>
<g>
	<path class="st0" d="M126.6,54.8l-5.6-3.5v7.1L126.6,54.8z"/>
	<path class="st8" d="M97.3,41.7h6.7l13.1,13.1h4.8"/>
	<path class="st0" d="M93.8,41.7l5.6,3.5v-7.1L93.8,41.7z"/>
	<path class="st8" d="M102.7,56.1l5.4-5.4 M113,45.8l5.4-5.4"/>
</g>
</svg>
