<svg width="144" height="180" viewBox="0 0 144 180" fill="none" xmlns="http://www.w3.org/2000/svg">
<path d="M77.9981 118.382L91.7346 72.3014C91.7346 72.3014 97.6353 61.4871 97.6353 50.1536C97.6353 41.6959 94.8738 30.4919 83.0233 17.1294C79.3532 12.9911 75.2258 9.11546 71.6093 6C67.9927 9.11546 63.8653 12.9911 60.1952 17.1294C48.3447 30.4919 45.5833 41.6959 45.5833 50.1536C45.5833 61.4871 51.4839 72.3014 51.4839 72.3014L65.2204 118.382" stroke="#5B6981" stroke-width="6"/>
<path d="M71.6597 176.818L79.6661 166.466C79.6661 166.466 82.6685 162.459 83.0021 156.115C83.3357 149.77 78.9989 123.057 78.9989 123.057V130.236C78.9989 130.236 80.6449 160.658 98.5145 161.124C114.444 161.541 115.159 148.004 113.527 141.255C113.095 139.472 111.692 135.996 106.021 132.907C106.021 132.907 106.104 142.925 98.3477 142.925C90.5915 142.925 87.2555 130.069 87.2555 130.069L87.3389 114.709C87.3389 114.709 94.6787 88.1375 102.351 88.3295C109.023 88.4964 107.772 94.173 105.353 98.5139C102.503 103.631 100.516 105.86 100.683 111.704C100.85 117.547 106.531 125.279 113.026 125.895C121.115 126.663 124.723 118.466 124.202 118.048C124.202 118.048 115.695 116.379 115.361 111.37C115.028 106.361 120.866 105.359 120.866 105.359C120.866 105.359 138.88 100.851 139.214 81.6511C139.547 62.4509 122.367 58.4438 117.53 58.4438C112.693 58.4438 83.0021 59.2786 78.6653 114.041H64.5533C60.2165 59.2786 30.526 58.4438 25.6888 58.4438C20.8516 58.4438 3.67119 62.4509 4.00479 81.6511C4.33839 100.851 22.3528 105.359 22.3528 105.359C22.3528 105.359 28.1908 106.361 27.8572 111.37C27.5236 116.379 19.0168 118.048 19.0168 118.048C18.4956 118.466 22.1031 126.663 30.1924 125.895C36.6877 125.279 42.3688 117.547 42.5356 111.704C42.7024 105.86 40.716 103.631 37.8652 98.5139C35.4466 94.173 34.1956 88.4964 40.8676 88.3295C48.5399 88.1375 55.8797 114.709 55.8797 114.709L55.9631 130.069C55.9631 130.069 52.627 142.925 44.8708 142.925C37.1146 142.925 37.198 132.907 37.198 132.907C31.5268 135.996 30.1234 139.472 29.692 141.255C28.0598 148.004 28.7746 161.541 44.704 161.124C62.5736 160.658 64.2197 130.236 64.2197 130.236V123.057C64.2197 123.057 59.8829 149.77 60.2165 156.115C60.5501 162.459 63.5525 166.466 63.5525 166.466L71.5589 176.818" stroke="#5B6981" stroke-width="6"/>
<path d="M85.433 129.153C93.4533 129.153 92.7456 122.542 92.7456 121.883C92.7456 121.224 93.4533 114.613 85.433 114.613C76.4744 114.613 67.5159 114.613 58.5573 114.613C50.537 114.613 51.2447 121.224 51.2447 121.883C51.2447 122.542 50.537 129.153 58.5573 129.153C67.5159 129.153 76.4744 129.153 85.433 129.153Z" stroke="#5B6981" stroke-width="6"/>
</svg>
